PathFileType	4	(X/Y/Z)	pose_F01_0-78.trc
DataRate	CameraRate	NumFrames	NumMarkers	Units	OrigDataRate	OrigDataStartFrame	OrigNumFrames
30	30	11	21	m	30	39	78
Frame#	Time	CHip			RHip			RKnee			RAnkle			RBigToe			RSmallToe			RHeel			LHip			LKnee			LAnkle			LBigToe			LSmallToe			LHeel			Neck			Nose			RShoulder			RElbow			RWrist			LShoulder			LElbow			LWrist			
		X1	Y1	Z1	X2	Y2	Z2	X3	Y3	Z3	X4	Y4	Z4	X5	Y5	Z5	X6	Y6	Z6	X7	Y7	Z7	X8	Y8	Z8	X9	Y9	Z9	X10	Y10	Z10	X11	Y11	Z11	X12	Y12	Z12	X13	Y13	Z13	X14	Y14	Z14	X15	Y15	Z15	X16	Y16	Z16	X17	Y17	Z17	X18	Y18	Z18	X19	Y19	Z19	X20	Y20	Z20	X21	Y21	Z21	
39	1.3	-0.24766096658504153	1.9090694587401136	-0.431712715005152	-0.26290065504562693	1.9040642335763764	-0.3724789272504607	-0.26545656451491784	1.7168481557015087	-0.4477177870666516													-0.2349400326744647	1.9138385798134228	-0.5035437916226324	-0.2282159771919714	1.7639479500921864	-0.5068632557913554	-0.21726670423821437	1.5948767328452063	-0.5504232376081666	-0.22229319359799804	1.557864243572134	-0.5860440625292525	-0.21813520423348606	1.5699984200107864	-0.6044114350713332	-0.21842513677310688	1.5776849672395106	-0.5288154641457818	-0.24281435442884022	2.072303459066226	-0.43180022421899494	-0.24809734296349056	2.1411982876224736	-0.47390850015848274	-0.2590106154866348	2.0704260594776756	-0.3480989659991426	-0.29656534478762436	2.036546619222652	-0.35707926176150206	-0.28318984485925697	2.1082755160657936	-0.3983679033138124	-0.2241980684337058	2.0748817808050974	-0.5231724897917046	-0.22494969376348564	2.020098084762601	-0.6122375468556311	-0.23285826120368203	2.0784541057698225	-0.6631900463446876
40	1.3333333333333333	-0.24473331020309494	1.9016868100695719	-0.42947051794721897	-0.260140579695212	1.899770626410192	-0.3708428236696445	-0.26545656451491784	1.7168481557015087	-0.4477177870666516													-0.2290728889487729	1.9053032618899683	-0.4915805988299145	-0.22564333303052303	1.7625616416041308	-0.5050812232287958	-0.21726670423821437	1.5948767328452063	-0.5504232376081666	-0.22229319359799804	1.557864243572134	-0.5860440625292525	-0.21813520423348606	1.5699984200107864	-0.6044114350713332	-0.21842513677310688	1.5776849672395106	-0.5288154641457818	-0.24418774793713685	2.0692540237886075	-0.4436972926380935	-0.25051171630786256	2.14076788950305	-0.49776083895606654	-0.26067920667954525	2.0674846778036766	-0.3600297571316579	-0.3014336231999313	2.0365635054922793	-0.3562327573128279	-0.2935871264890514	2.1051983142215445	-0.39669976896648607	-0.22336509427170279	2.0716183351451316	-0.5289288664205113	-0.2199927814111883	2.013651203841377	-0.6123612010682495	-0.23012485503112612	2.0876383921172867	-0.6440127657567734
41	1.3666666666666667	-0.2423540948518987	1.8845387523964603	-0.42844240625787694	-0.2488483680348053	1.882358551629441	-0.3575466238605196	-0.26545656451491784	1.7168481557015087	-0.4477177870666516													-0.2258282468412703	1.8881653222521084	-0.4878105667343556	-0.22566773420255548	1.7471399521391666	-0.5123278792612405	-0.21726670423821437	1.5948767328452063	-0.5504232376081666	-0.22229319359799804	1.557864243572134	-0.5860440625292525	-0.21813520423348606	1.5699984200107864	-0.6044114350713332	-0.21842513677310688	1.5776849672395106	-0.5288154641457818	-0.24385024552222093	2.053536843088952	-0.4540520343171151	-0.2542548665445295	2.1231338289391903	-0.513160180302869	-0.26072064212899565	2.0501550523498167	-0.37033758390894567	-0.29529106309406794	2.0004007264684747	-0.34434516719365205	-0.29505956246537773	2.049548720779989	-0.36592717531090896	-0.22365233324376524	2.0588240456829263	-0.5270502502144943	-0.21372866724498069	2.0050673543828736	-0.617791813701341	-0.22569523396287827	2.0778604456385623	-0.6367640788145525
42	1.4	-0.23997388278051984	1.8662520799296693	-0.41594553984176014	-0.2485337343998288	1.8620675379454152	-0.3510565809785195	-0.26545656451491784	1.7168481557015087	-0.4477177870666516													-0.22354129905742676	1.86768033868058	-0.4838003714794365	-0.22569213537458793	1.7317182626742023	-0.5195745352936851	-0.21726670423821437	1.5948767328452063	-0.5504232376081666	-0.22229319359799804	1.557864243572134	-0.5860440625292525	-0.21813520423348606	1.5699984200107864	-0.6044114350713332	-0.21842513677310688	1.5776849672395106	-0.5288154641457818	-0.24253148133865032	2.0310487976735345	-0.45257285744266534	-0.2544859666434179	2.089319092288831	-0.5144849754270922	-0.2602072367025263	2.0261725565888176	-0.3624444371841635	-0.28914850298820455	1.9642379474446698	-0.33245757707447626	-0.2965319984417041	1.9938991273384334	-0.3351545816553318	-0.2224806897946639	2.0340633171932487	-0.5347081145581689	-0.21051628951646892	1.9822056880211512	-0.6195611036217246	-0.2133025539572084	2.0526636037083272	-0.6176099832164156
43	1.4333333333333333	-0.23516788417282647	1.837631118162833	-0.4131298043376439	-0.24654795423941187	1.8360065557332887	-0.3495569633293631	-0.26545656451491784	1.7168481557015087	-0.4477177870666516													-0.22250229979853198	1.8425818950711828	-0.47732323478155575	-0.2257165365466204	1.7162965732092381	-0.5268211913261297	-0.21726670423821437	1.5948767328452063	-0.5504232376081666	-0.22229319359799804	1.557864243572134	-0.5860440625292525	-0.21813520423348606	1.5699984200107864	-0.6044114350713332	-0.21842513677310688	1.5776849672395106	-0.5288154641457818	-0.24194121910641217	2.000802366221547	-0.4515235655519222	-0.2486638584148172	2.0653576343547435	-0.5218858854818484	-0.25804743739043196	1.9976316449273888	-0.3632277379995464	-0.2830059428823412	1.928075168420865	-0.3205699869553004	-0.2980044344180305	1.938249533896878	-0.3043819879997547	-0.21873037557909028	2.0043413948940034	-0.5416602851453444	-0.2093375589106584	1.9357336809151118	-0.5863188270128951	-0.20597881530851458	1.9872728575893268	-0.6246252642979827
44	1.4666666666666666	-0.23414606734022006	1.8333094238922445	-0.4091239435312552	-0.24748539936802325	1.8353490220883906	-0.3526782961079291	-0.26545656451491784	1.7168481557015087	-0.4477177870666516													-0.22071801173553277	1.8367512679839906	-0.46971131290132717	-0.22574093771865286	1.700874883744274	-0.5340678473585744	-0.21726670423821437	1.5948767328452063	-0.5504232376081666	-0.22229319359799804	1.557864243572134	-0.5860440625292525	-0.21813520423348606	1.5699984200107864	-0.6044114350713332	-0.21842513677310688	1.5776849672395106	-0.5288154641457818	-0.2383226972270723	1.9888803659492063	-0.4537157086846088	-0.24570703058774418	2.050506376111757	-0.5343137509196509	-0.2591282373814017	1.987462240382812	-0.36404814899865057	-0.27867655695184185	1.9094347561806357	-0.31862865146963076	-0.29947687039435683	1.8825999404553224	-0.2736093943441776	-0.21469278981927045	1.989992652034491	-0.5434625337866079	-0.20501145490889894	1.9157174821004894	-0.5404062413778197	-0.20468710996903577	1.9106814359293287	-0.58399192605619
45	1.5	-0.23605391093925002	1.8367400862829097	-0.4162551170485294	-0.24842284449663463	1.8346914884434926	-0.35579962888649513	-0.26545656451491784	1.7168481557015087	-0.4477177870666516													-0.22231471594985683	1.8412852829507205	-0.47704072825226823	-0.22397546033950094	1.7058214726636667	-0.5281143231680726	-0.21726670423821437	1.5948767328452063	-0.5504232376081666	-0.22229319359799804	1.557864243572134	-0.5860440625292525	-0.21813520423348606	1.5699984200107864	-0.6044114350713332	-0.21842513677310688	1.5776849672395106	-0.5288154641457818	-0.23812885616694804	1.9923629706077732	-0.45415183484868066	-0.2476302337384683	2.049082029150432	-0.5402311920508966	-0.25712176747224746	1.9910734369195493	-0.366581672430115	-0.27018146230997947	1.900772808144602	-0.2998995732956256	-0.3009493063706832	1.826950347013767	-0.24283680068860045	-0.21464846729480874	1.9946250777951122	-0.544124348204232	-0.2017457091566584	1.916297888429607	-0.5484212435612242	-0.18075559904737012	1.8822987992917954	-0.6402482164914141
46	1.5333333333333334	-0.23692277918779217	1.851119065405131	-0.4214325405278386	-0.24725105092414695	1.8457925681517235	-0.35410744395773663	-0.26545656451491784	1.7168481557015087	-0.4477177870666516													-0.22138115994028973	1.8534695782526132	-0.4840030418353946	-0.22220998296034902	1.7107680615830594	-0.5221607989775707	-0.21726670423821437	1.5948767328452063	-0.5504232376081666	-0.22229319359799804	1.557864243572134	-0.5860440625292525	-0.21813520423348606	1.5699984200107864	-0.6044114350713332	-0.21842513677310688	1.5776849672395106	-0.5288154641457818	-0.234923375260726	2.005522749856242	-0.4554875808141577	-0.24723629501580982	2.062988143953275	-0.5418294771668094	-0.25675601243491597	2.007729448715537	-0.3700727248433206	-0.2691098947709222	1.9224188524637555	-0.3172503726009106	-0.2766043462551352	1.8479199022680366	-0.24971828736608187	-0.2113106355357205	2.006520641021476	-0.5446367916202784	-0.1995014459613702	1.9316282387664345	-0.5529407395091269	-0.18405038301103654	1.8723043805357276	-0.630930790498225
47	1.5666666666666667	-0.2356346747177438	1.8642912394344404	-0.4289615474417628	-0.24625661901473095	1.8637012376138935	-0.36225483457042434	-0.26545656451491784	1.7168481557015087	-0.4477177870666516													-0.22084260544899592	1.8657627079348769	-0.48593228279034695	-0.22044450558119708	1.715714650502452	-0.516207274787069	-0.21726670423821437	1.5948767328452063	-0.5504232376081666	-0.22229319359799804	1.557864243572134	-0.5860440625292525	-0.21813520423348606	1.5699984200107864	-0.6044114350713332	-0.21842513677310688	1.5776849672395106	-0.5288154641457818	-0.23535129802539762	2.020549579738199	-0.4606673095570374	-0.24668263859966322	2.0834722279722557	-0.5449802788702577	-0.2552656074651227	2.0201210803836904	-0.3689271608737956	-0.26098039405464096	1.9345755113429342	-0.31103562471736507	-0.2689407953191592	1.863065231737456	-0.2458903324863161	-0.2118217064846417	2.023780510140997	-0.5505950929015749	-0.2010122972031337	1.9442188679483712	-0.5524087920467139	-0.19013974707849557	1.8811035195317025	-0.6162909862068445
48	1.6	-0.23478921986060905	1.882749936549561	-0.4374491101592041	-0.2506455072494584	1.8812426409297502	-0.3784169014129996	-0.26545656451491784	1.7168481557015087	-0.4477177870666516													-0.21992095598969877	1.8851414791382421	-0.49417348852310444	-0.21867902820204516	1.7206612394218448	-0.5102537505965672	-0.21726670423821437	1.5948767328452063	-0.5504232376081666	-0.22229319359799804	1.557864243572134	-0.5860440625292525	-0.21813520423348606	1.5699984200107864	-0.6044114350713332	-0.21842513677310688	1.5776849672395106	-0.5288154641457818	-0.23332715772304893	2.0358314533732798	-0.46602570926217113	-0.24623446539734914	2.099000995115272	-0.5479689028822811	-0.2550398168104449	2.033870457234306	-0.3718775195962821	-0.26246289832936687	1.951067939151196	-0.3119407235102873	-0.2701771424595091	1.8792555532389477	-0.23794091470531314	-0.21041621310885425	2.039640133045821	-0.5582065657598546	-0.19957681931523133	1.9582355927196888	-0.5596901835298964	-0.18965150495683233	1.8921406167491703	-0.6176118647078271
49	1.6333333333333333	-0.23397131349542233	1.89225046928977	-0.44440691263717136	-0.2481627784762543	1.889032822311377	-0.3876355461244522	-0.26545656451491784	1.7168481557015087	-0.4477177870666516													-0.2189444947801449	1.8931001088415855	-0.5008358576057574	-0.21691355082289324	1.7256078283412377	-0.5043002264060654	-0.21726670423821437	1.5948767328452063	-0.5504232376081666	-0.22229319359799804	1.557864243572134	-0.5860440625292525	-0.21813520423348606	1.5699984200107864	-0.6044114350713332	-0.21842513677310688	1.5776849672395106	-0.5288154641457818	-0.23299219288208628	2.042472923530782	-0.4669349190951308	-0.24217216309106657	2.1044946141409926	-0.544698453761322	-0.25307158471960955	2.0442296129107884	-0.376593905864381	-0.25970147135441557	1.958878618302366	-0.31273099101351454	-0.2733257945455789	1.8889386128208316	-0.21276142762766695	-0.2103474998369014	2.0440363596344944	-0.5590616216039547	-0.1975959202991921	1.964565336765403	-0.563019157921382	-0.17857421025107023	1.9018100769264594	-0.6390600710608703
